<svg xmlns="http://www.w3.org/2000/svg" viewBox="0 0 420 140" width="840" height="280">
  <defs>
    <linearGradient id="textGrad" x1="0" y1="0" x2="0" y2="1">
      <stop offset="0%" stop-color="#FFFFFF" />
      <stop offset="100%" stop-color="#DCE0E6" />
    </linearGradient>
  </defs>
  <path d="M 349 52 L 344 57 L 340 64 L 340 67 L 339 69 L 341 71 L 352 70 L 352 67 L 354 64 L 358 60 L 360 59 L 362 59 L 365 57 L 375 57 L 381 59 L 386 64 L 387 66 L 387 73 L 383 76 L 378 77 L 360 78 L 353 80 L 347 83 L 340 90 L 337 99 L 337 104 L 338 108 L 342 116 L 347 120 L 351 121 L 354 123 L 371 123 L 377 120 L 379 120 L 382 118 L 385 114 L 388 114 L 389 117 L 389 121 L 391 122 L 403 121 L 403 119 L 401 116 L 401 69 L 399 65 L 399 61 L 397 57 L 388 49 L 377 46 L 364 46 L 359 47 Z M 387 86 L 387 99 L 384 105 L 378 110 L 369 113 L 362 113 L 356 111 L 352 107 L 351 104 L 351 99 L 352 95 L 357 90 L 364 88 L 380 87 L 384 85 Z M 336 47 L 328 46 L 323 47 L 320 49 L 318 49 L 310 57 L 309 59 L 307 48 L 295 48 L 295 121 L 297 122 L 306 122 L 308 121 L 308 80 L 309 74 L 311 71 L 311 69 L 317 63 L 321 61 L 337 59 Z M 242 47 L 239 49 L 237 49 L 233 51 L 229 54 L 224 59 L 223 62 L 221 64 L 221 66 L 218 71 L 217 77 L 217 94 L 218 98 L 224 110 L 231 117 L 234 119 L 244 123 L 261 123 L 265 122 L 273 118 L 281 110 L 286 102 L 288 96 L 289 86 L 288 73 L 286 70 L 286 67 L 283 61 L 274 52 L 267 48 L 259 46 L 247 46 Z M 250 57 L 256 57 L 264 60 L 271 67 L 271 69 L 274 75 L 275 82 L 274 95 L 270 104 L 263 110 L 255 112 L 249 112 L 241 109 L 235 103 L 233 99 L 233 97 L 231 94 L 231 76 L 234 68 L 240 61 Z M 124 46 L 115 49 L 113 51 L 110 52 L 103 59 L 98 68 L 98 72 L 96 74 L 95 83 L 96 97 L 98 100 L 98 103 L 100 105 L 100 107 L 110 118 L 118 122 L 122 123 L 139 123 L 147 120 L 153 116 L 158 111 L 161 105 L 163 103 L 162 99 L 150 98 L 148 102 L 148 104 L 142 110 L 135 112 L 127 112 L 122 111 L 115 106 L 112 102 L 112 100 L 110 97 L 109 90 L 111 88 L 162 89 L 164 88 L 165 79 L 162 67 L 159 61 L 153 54 L 146 49 L 137 46 Z M 110 73 L 114 65 L 119 60 L 126 57 L 133 57 L 136 59 L 139 59 L 142 61 L 148 68 L 148 71 L 150 74 L 149 78 L 110 77 Z M 198 17 L 196 18 L 197 121 L 199 122 L 208 122 L 210 121 L 210 18 L 208 17 L 201 18 Z M 181 17 L 171 18 L 170 20 L 171 121 L 173 122 L 182 122 L 184 121 L 184 18 Z M 16 18 L 17 122 L 62 122 L 72 120 L 75 118 L 77 118 L 87 110 L 91 103 L 93 96 L 92 84 L 91 81 L 89 79 L 89 77 L 82 70 L 76 66 L 84 59 L 88 52 L 89 48 L 89 40 L 86 31 L 79 23 L 69 18 L 63 17 Z M 31 74 L 62 74 L 69 76 L 77 83 L 78 88 L 78 94 L 77 99 L 71 106 L 69 106 L 67 108 L 62 109 L 32 109 L 31 105 Z M 31 30 L 58 30 L 63 31 L 69 34 L 72 37 L 74 41 L 74 51 L 67 59 L 63 61 L 32 62 L 30 60 Z" fill="url(#textGrad)" fill-rule="evenodd" />
</svg>